<?xml version="1.0" encoding="UTF-8"?>
<svg xmlns="http://www.w3.org/2000/svg" width="800" height="40" viewBox="0 0 800 40">
  <defs>
    <linearGradient id="grad1" x1="0%" y1="0%" x2="100%" y2="0%">
      <stop offset="0%" style="stop-color:#ffc9e0;stop-opacity:0.3" />
      <stop offset="50%" style="stop-color:#b4f8c8;stop-opacity:0.5" />
      <stop offset="100%" style="stop-color:#ffc9e0;stop-opacity:0.3" />
    </linearGradient>
  </defs>
  
  <!-- 中心线 -->
  <path d="M 50 20 Q 200 22 400 20 T 750 20" stroke="url(#grad1)" stroke-width="2" fill="none" opacity="0.6"/>
  
  <!-- 樱花装饰 -->
  <g opacity="0.7">
    <!-- 左侧樱花 -->
    <path d="M 100 20 Q 98 18 100 16 Q 102 18 100 20 Z" fill="#ffb7d5" />
    <path d="M 100 20 Q 102 18 104 20 Q 102 22 100 20 Z" fill="#b4f8c8" />
    <path d="M 100 20 Q 102 22 100 24 Q 98 22 100 20 Z" fill="#ffb7d5" />
    <path d="M 100 20 Q 98 22 96 20 Q 98 18 100 20 Z" fill="#b4f8c8" />
    <circle cx="100" cy="20" r="2.5" fill="#ffdbeb" />
    
    <!-- 中心樱花 -->
    <path d="M 400 20 Q 398 18 400 16 Q 402 18 400 20 Z" fill="#b4f8c8" />
    <path d="M 400 20 Q 402 18 404 20 Q 402 22 400 20 Z" fill="#ffb7d5" />
    <path d="M 400 20 Q 402 22 400 24 Q 398 22 400 20 Z" fill="#b4f8c8" />
    <path d="M 400 20 Q 398 22 396 20 Q 398 18 400 20 Z" fill="#ffb7d5" />
    <circle cx="400" cy="20" r="2.5" fill="#d4f5e9" />
    
    <!-- 右侧樱花 -->
    <path d="M 700 20 Q 698 18 700 16 Q 702 18 700 20 Z" fill="#ffb7d5" />
    <path d="M 700 20 Q 702 18 704 20 Q 702 22 700 20 Z" fill="#b4f8c8" />
    <path d="M 700 20 Q 702 22 700 24 Q 698 22 700 20 Z" fill="#ffb7d5" />
    <path d="M 700 20 Q 698 22 696 20 Q 698 18 700 20 Z" fill="#b4f8c8" />
    <circle cx="700" cy="20" r="2.5" fill="#ffdbeb" />
  </g>
  
  <!-- 小装饰点 -->
  <circle cx="200" cy="18" r="2" fill="#ffc9e0" opacity="0.4" />
  <circle cx="250" cy="22" r="1.5" fill="#b4f8c8" opacity="0.4" />
  <circle cx="550" cy="18" r="2" fill="#ffc9e0" opacity="0.4" />
  <circle cx="600" cy="22" r="1.5" fill="#b4f8c8" opacity="0.4" />
  
  <!-- 小星星 -->
  <path d="M 150 15 l 1 3 l 3 1 l -3 1 l -1 3 l -1 -3 l -3 -1 l 3 -1 z" fill="#b4f8c8" opacity="0.5" />
  <path d="M 650 15 l 1 3 l 3 1 l -3 1 l -1 3 l -1 -3 l -3 -1 l 3 -1 z" fill="#ffb7d5" opacity="0.5" />
</svg>
